<svg width="64" height="64" viewBox="0 0 64 64" fill="none" xmlns="http://www.w3.org/2000/svg">
<g clip-path="url(#clip0)">
<path d="M46.6665 64C46.3865 64 46.1065 63.912 45.8692 63.736C45.1918 63.232 29.3331 51.2827 29.3331 41.68C29.3331 36.3413 33.6771 32 39.0158 32C42.0585 32 44.8638 33.416 46.6665 35.744C48.4718 33.416 51.2771 32 54.3171 32C59.6558 32 63.9998 36.3413 63.9998 41.68C63.9998 51.2827 48.1411 63.232 47.4638 63.736C47.2265 63.912 46.9465 64 46.6665 64ZM39.0158 34.6667C35.1491 34.6667 31.9998 37.8133 31.9998 41.68C31.9998 48.152 41.9305 57.2747 46.6665 60.9867C51.4025 57.2747 61.3332 48.152 61.3332 41.68C61.3332 37.8133 58.1838 34.6667 54.3171 34.6667C51.5225 34.6667 48.9998 36.3173 47.8905 38.8747C47.6771 39.3627 47.1971 39.6773 46.6665 39.6773C46.1358 39.6773 45.6532 39.3627 45.4425 38.8747C44.3358 36.3173 41.8131 34.6667 39.0158 34.6667Z" fill="#FBC100"/>
<path d="M22.6667 48H4C1.79467 48 0 46.2053 0 44C0 43.7707 0.024 43.568 0.056 43.344L8.07733 3.20533C8.44533 1.34933 10.0933 0 12 0H41.3333C43.24 0 44.888 1.34933 45.256 3.208L49.8933 26.4053C50.0373 27.128 49.5707 27.8293 48.8453 27.9733C48.1547 28.12 47.424 27.6507 47.2773 26.928L42.64 3.728C42.5173 3.112 41.968 2.66667 41.3333 2.66667H12C11.3653 2.66667 10.816 3.112 10.6933 3.72267L2.69333 43.7253C2.68267 43.8133 2.66667 43.9013 2.66667 44C2.66667 44.736 3.26667 45.3333 4 45.3333H22.6667C23.4027 45.3333 24 45.9307 24 46.6667C24 47.4027 23.4027 48 22.6667 48Z" fill="#BABAC0"/>
<path d="M59.2507 28C58.6293 28 58.0747 27.5627 57.9467 26.928L53.3093 3.728C53.184 3.112 52.6347 2.66667 52 2.66667H41.3333C40.5973 2.66667 40 2.06933 40 1.33333C40 0.597333 40.5973 0 41.3333 0H52C53.9067 0 55.5547 1.34933 55.9227 3.208L60.56 26.4053C60.704 27.128 60.2373 27.8293 59.512 27.9733C59.4267 27.992 59.3387 28 59.2507 28Z" fill="#BABAC0"/>
<path d="M26.6666 23.9999C20.784 23.9999 16 19.2159 16 13.3333V6.66659C16 5.93059 16.5973 5.33325 17.3333 5.33325C18.0693 5.33325 18.6667 5.93059 18.6667 6.66659V13.3333C18.6667 17.7439 22.256 21.3333 26.6666 21.3333C31.0773 21.3333 34.6666 17.7439 34.6666 13.3333V6.66659C34.6666 5.93059 35.264 5.33325 36 5.33325C36.736 5.33325 37.3333 5.93059 37.3333 6.66659V13.3333C37.3333 19.2159 32.5493 23.9999 26.6666 23.9999Z" fill="#BABAC0"/>
</g>
<defs>
<clipPath id="clip0">
<rect width="64" height="64" fill="white"/>
</clipPath>
</defs>
</svg>
